<mxfile host="app.diagrams.net" agent="Mozilla/5.0 (Windows NT 10.0; Win64; x64) AppleWebKit/537.36 (KHTML, like Gecko) Chrome/130.0.0.0 Safari/537.36 Edg/130.0.0.0" version="24.8.2">
  <diagram id="prtHgNgQTEPvFCAcTncT" name="Page-1">
    <mxGraphModel dx="1397" dy="763" grid="1" gridSize="10" guides="1" tooltips="1" connect="1" arrows="1" fold="1" page="1" pageScale="1" pageWidth="827" pageHeight="1169" math="0" shadow="0">
      <root>
        <mxCell id="0" />
        <mxCell id="1" parent="0" />
        <mxCell id="dNxyNK7c78bLwvsdeMH5-19" value="埋点上报" style="swimlane;html=1;childLayout=stackLayout;resizeParent=1;resizeParentMax=0;horizontal=0;startSize=20;horizontalStack=0;flipV=1;direction=east;" parent="1" vertex="1">
          <mxGeometry x="170" y="110" width="560" height="720" as="geometry" />
        </mxCell>
        <mxCell id="dNxyNK7c78bLwvsdeMH5-20" value="车机应用" style="swimlane;html=1;startSize=20;horizontal=0;direction=east;" parent="dNxyNK7c78bLwvsdeMH5-19" vertex="1">
          <mxGeometry x="20" width="540" height="120" as="geometry" />
        </mxCell>
        <mxCell id="dNxyNK7c78bLwvsdeMH5-25" value="" style="edgeStyle=orthogonalEdgeStyle;rounded=0;orthogonalLoop=1;jettySize=auto;html=1;" parent="dNxyNK7c78bLwvsdeMH5-20" source="dNxyNK7c78bLwvsdeMH5-23" target="dNxyNK7c78bLwvsdeMH5-24" edge="1">
          <mxGeometry relative="1" as="geometry" />
        </mxCell>
        <mxCell id="dNxyNK7c78bLwvsdeMH5-23" value="开始" style="ellipse;whiteSpace=wrap;html=1;" parent="dNxyNK7c78bLwvsdeMH5-20" vertex="1">
          <mxGeometry x="40" y="40" width="40" height="40" as="geometry" />
        </mxCell>
        <mxCell id="dNxyNK7c78bLwvsdeMH5-24" value="业务埋点" style="rounded=0;whiteSpace=wrap;html=1;fontFamily=Helvetica;fontSize=12;fontColor=#000000;align=center;" parent="dNxyNK7c78bLwvsdeMH5-20" vertex="1">
          <mxGeometry x="120" y="30" width="80" height="60" as="geometry" />
        </mxCell>
        <mxCell id="dNxyNK7c78bLwvsdeMH5-21" value="SDK" style="swimlane;html=1;startSize=20;horizontal=0;direction=east;" parent="dNxyNK7c78bLwvsdeMH5-19" vertex="1">
          <mxGeometry x="20" y="120" width="540" height="120" as="geometry" />
        </mxCell>
        <mxCell id="7z3DXDidlybnfO_21kMn-12" style="edgeStyle=orthogonalEdgeStyle;rounded=0;orthogonalLoop=1;jettySize=auto;html=1;exitX=1;exitY=0.5;exitDx=0;exitDy=0;" edge="1" parent="dNxyNK7c78bLwvsdeMH5-21" source="dNxyNK7c78bLwvsdeMH5-26" target="7z3DXDidlybnfO_21kMn-11">
          <mxGeometry relative="1" as="geometry" />
        </mxCell>
        <mxCell id="dNxyNK7c78bLwvsdeMH5-26" value="埋点数据存储" style="rounded=0;whiteSpace=wrap;html=1;fontFamily=Helvetica;fontSize=12;fontColor=#000000;align=center;" parent="dNxyNK7c78bLwvsdeMH5-21" vertex="1">
          <mxGeometry x="120" y="30" width="80" height="60" as="geometry" />
        </mxCell>
        <mxCell id="7z3DXDidlybnfO_21kMn-11" value="上报埋点接口" style="rounded=0;whiteSpace=wrap;html=1;fontFamily=Helvetica;fontSize=12;fontColor=#000000;align=center;" vertex="1" parent="dNxyNK7c78bLwvsdeMH5-21">
          <mxGeometry x="250" y="30" width="80" height="60" as="geometry" />
        </mxCell>
        <mxCell id="7z3DXDidlybnfO_21kMn-28" style="edgeStyle=orthogonalEdgeStyle;rounded=0;orthogonalLoop=1;jettySize=auto;html=1;exitX=0;exitY=0.5;exitDx=0;exitDy=0;entryX=1;entryY=0.5;entryDx=0;entryDy=0;" edge="1" parent="dNxyNK7c78bLwvsdeMH5-21" source="7z3DXDidlybnfO_21kMn-27" target="7z3DXDidlybnfO_21kMn-11">
          <mxGeometry relative="1" as="geometry">
            <Array as="points">
              <mxPoint x="360" y="60" />
              <mxPoint x="360" y="60" />
            </Array>
          </mxGeometry>
        </mxCell>
        <mxCell id="7z3DXDidlybnfO_21kMn-31" value="失败" style="edgeLabel;html=1;align=center;verticalAlign=middle;resizable=0;points=[];" vertex="1" connectable="0" parent="7z3DXDidlybnfO_21kMn-28">
          <mxGeometry x="-0.5269" y="-2" relative="1" as="geometry">
            <mxPoint as="offset" />
          </mxGeometry>
        </mxCell>
        <mxCell id="7z3DXDidlybnfO_21kMn-30" style="edgeStyle=orthogonalEdgeStyle;rounded=0;orthogonalLoop=1;jettySize=auto;html=1;exitX=1;exitY=0.5;exitDx=0;exitDy=0;entryX=0;entryY=0.5;entryDx=0;entryDy=0;" edge="1" parent="dNxyNK7c78bLwvsdeMH5-21" source="7z3DXDidlybnfO_21kMn-27" target="7z3DXDidlybnfO_21kMn-29">
          <mxGeometry relative="1" as="geometry" />
        </mxCell>
        <mxCell id="7z3DXDidlybnfO_21kMn-32" value="成功" style="edgeLabel;html=1;align=center;verticalAlign=middle;resizable=0;points=[];" vertex="1" connectable="0" parent="7z3DXDidlybnfO_21kMn-30">
          <mxGeometry x="-0.2593" y="2" relative="1" as="geometry">
            <mxPoint as="offset" />
          </mxGeometry>
        </mxCell>
        <mxCell id="7z3DXDidlybnfO_21kMn-33" value="" style="edgeStyle=orthogonalEdgeStyle;rounded=0;orthogonalLoop=1;jettySize=auto;html=1;" edge="1" parent="dNxyNK7c78bLwvsdeMH5-21" source="7z3DXDidlybnfO_21kMn-27" target="7z3DXDidlybnfO_21kMn-11">
          <mxGeometry relative="1" as="geometry" />
        </mxCell>
        <mxCell id="7z3DXDidlybnfO_21kMn-27" value="上报状态" style="rhombus;whiteSpace=wrap;html=1;" vertex="1" parent="dNxyNK7c78bLwvsdeMH5-21">
          <mxGeometry x="380" y="32.5" width="60" height="55" as="geometry" />
        </mxCell>
        <mxCell id="7z3DXDidlybnfO_21kMn-29" value="结束" style="ellipse;whiteSpace=wrap;html=1;" vertex="1" parent="dNxyNK7c78bLwvsdeMH5-21">
          <mxGeometry x="490" y="40" width="40" height="40" as="geometry" />
        </mxCell>
        <mxCell id="dNxyNK7c78bLwvsdeMH5-22" value="NGINX" style="swimlane;html=1;startSize=20;horizontal=0;direction=east;" parent="dNxyNK7c78bLwvsdeMH5-19" vertex="1">
          <mxGeometry x="20" y="240" width="540" height="120" as="geometry" />
        </mxCell>
        <mxCell id="7z3DXDidlybnfO_21kMn-13" value="负载均衡" style="rounded=0;whiteSpace=wrap;html=1;fontFamily=Helvetica;fontSize=12;fontColor=#000000;align=center;" vertex="1" parent="dNxyNK7c78bLwvsdeMH5-22">
          <mxGeometry x="80" y="40" width="270" height="60" as="geometry" />
        </mxCell>
        <mxCell id="7z3DXDidlybnfO_21kMn-1" value="埋点接口" style="swimlane;html=1;startSize=20;horizontal=0;direction=east;" vertex="1" parent="dNxyNK7c78bLwvsdeMH5-19">
          <mxGeometry x="20" y="360" width="540" height="120" as="geometry" />
        </mxCell>
        <mxCell id="7z3DXDidlybnfO_21kMn-18" style="edgeStyle=orthogonalEdgeStyle;rounded=0;orthogonalLoop=1;jettySize=auto;html=1;exitX=1;exitY=0.5;exitDx=0;exitDy=0;" edge="1" parent="7z3DXDidlybnfO_21kMn-1" source="7z3DXDidlybnfO_21kMn-3" target="7z3DXDidlybnfO_21kMn-17">
          <mxGeometry relative="1" as="geometry" />
        </mxCell>
        <mxCell id="7z3DXDidlybnfO_21kMn-3" value="接收埋点数据" style="rounded=0;whiteSpace=wrap;html=1;fontFamily=Helvetica;fontSize=12;fontColor=#000000;align=center;" vertex="1" parent="7z3DXDidlybnfO_21kMn-1">
          <mxGeometry x="100" y="40" width="80" height="60" as="geometry" />
        </mxCell>
        <mxCell id="7z3DXDidlybnfO_21kMn-17" value="埋点落盘文件" style="rounded=0;whiteSpace=wrap;html=1;fontFamily=Helvetica;fontSize=12;fontColor=#000000;align=center;" vertex="1" parent="7z3DXDidlybnfO_21kMn-1">
          <mxGeometry x="210" y="40" width="80" height="60" as="geometry" />
        </mxCell>
        <mxCell id="7z3DXDidlybnfO_21kMn-5" value="Filebeat" style="swimlane;html=1;startSize=20;horizontal=0;direction=east;" vertex="1" parent="dNxyNK7c78bLwvsdeMH5-19">
          <mxGeometry x="20" y="480" width="540" height="120" as="geometry" />
        </mxCell>
        <mxCell id="7z3DXDidlybnfO_21kMn-16" value="收集文件日志" style="rounded=0;whiteSpace=wrap;html=1;fontFamily=Helvetica;fontSize=12;fontColor=#000000;align=center;" vertex="1" parent="7z3DXDidlybnfO_21kMn-5">
          <mxGeometry x="210" y="30" width="80" height="60" as="geometry" />
        </mxCell>
        <mxCell id="7z3DXDidlybnfO_21kMn-21" value="Kafka" style="swimlane;html=1;startSize=20;horizontal=0;direction=east;" vertex="1" parent="dNxyNK7c78bLwvsdeMH5-19">
          <mxGeometry x="20" y="600" width="540" height="120" as="geometry" />
        </mxCell>
        <mxCell id="7z3DXDidlybnfO_21kMn-22" value="测试验证Topic" style="rounded=0;whiteSpace=wrap;html=1;fontFamily=Helvetica;fontSize=12;fontColor=#000000;align=center;" vertex="1" parent="7z3DXDidlybnfO_21kMn-21">
          <mxGeometry x="300" y="50" width="80" height="60" as="geometry" />
        </mxCell>
        <mxCell id="7z3DXDidlybnfO_21kMn-23" value="大数据Topic" style="rounded=0;whiteSpace=wrap;html=1;fontFamily=Helvetica;fontSize=12;fontColor=#000000;align=center;" vertex="1" parent="7z3DXDidlybnfO_21kMn-21">
          <mxGeometry x="120" y="50" width="80" height="60" as="geometry" />
        </mxCell>
        <mxCell id="dNxyNK7c78bLwvsdeMH5-27" value="" style="edgeStyle=orthogonalEdgeStyle;rounded=0;orthogonalLoop=1;jettySize=auto;html=1;dashed=1;endArrow=none;endFill=0;" parent="dNxyNK7c78bLwvsdeMH5-19" source="dNxyNK7c78bLwvsdeMH5-24" target="dNxyNK7c78bLwvsdeMH5-26" edge="1">
          <mxGeometry relative="1" as="geometry" />
        </mxCell>
        <mxCell id="7z3DXDidlybnfO_21kMn-14" style="edgeStyle=orthogonalEdgeStyle;rounded=0;orthogonalLoop=1;jettySize=auto;html=1;exitX=0.5;exitY=1;exitDx=0;exitDy=0;" edge="1" parent="dNxyNK7c78bLwvsdeMH5-19" source="7z3DXDidlybnfO_21kMn-11" target="7z3DXDidlybnfO_21kMn-13">
          <mxGeometry relative="1" as="geometry" />
        </mxCell>
        <mxCell id="7z3DXDidlybnfO_21kMn-15" style="edgeStyle=orthogonalEdgeStyle;rounded=0;orthogonalLoop=1;jettySize=auto;html=1;exitX=0.5;exitY=1;exitDx=0;exitDy=0;" edge="1" parent="dNxyNK7c78bLwvsdeMH5-19" source="7z3DXDidlybnfO_21kMn-13" target="7z3DXDidlybnfO_21kMn-3">
          <mxGeometry relative="1" as="geometry" />
        </mxCell>
        <mxCell id="7z3DXDidlybnfO_21kMn-20" style="edgeStyle=orthogonalEdgeStyle;rounded=0;orthogonalLoop=1;jettySize=auto;html=1;exitX=1;exitY=0.5;exitDx=0;exitDy=0;entryX=0.5;entryY=1;entryDx=0;entryDy=0;" edge="1" parent="dNxyNK7c78bLwvsdeMH5-19" source="7z3DXDidlybnfO_21kMn-17" target="7z3DXDidlybnfO_21kMn-27">
          <mxGeometry relative="1" as="geometry">
            <mxPoint x="400.0000000000002" y="80" as="targetPoint" />
          </mxGeometry>
        </mxCell>
        <mxCell id="7z3DXDidlybnfO_21kMn-24" style="edgeStyle=orthogonalEdgeStyle;rounded=0;orthogonalLoop=1;jettySize=auto;html=1;exitX=0.5;exitY=1;exitDx=0;exitDy=0;entryX=0.5;entryY=0;entryDx=0;entryDy=0;" edge="1" parent="dNxyNK7c78bLwvsdeMH5-19" source="7z3DXDidlybnfO_21kMn-17" target="7z3DXDidlybnfO_21kMn-16">
          <mxGeometry relative="1" as="geometry" />
        </mxCell>
        <mxCell id="7z3DXDidlybnfO_21kMn-25" style="edgeStyle=orthogonalEdgeStyle;rounded=0;orthogonalLoop=1;jettySize=auto;html=1;exitX=0.5;exitY=1;exitDx=0;exitDy=0;" edge="1" parent="dNxyNK7c78bLwvsdeMH5-19" source="7z3DXDidlybnfO_21kMn-16" target="7z3DXDidlybnfO_21kMn-23">
          <mxGeometry relative="1" as="geometry" />
        </mxCell>
        <mxCell id="7z3DXDidlybnfO_21kMn-26" style="edgeStyle=orthogonalEdgeStyle;rounded=0;orthogonalLoop=1;jettySize=auto;html=1;exitX=0.5;exitY=1;exitDx=0;exitDy=0;" edge="1" parent="dNxyNK7c78bLwvsdeMH5-19" source="7z3DXDidlybnfO_21kMn-16" target="7z3DXDidlybnfO_21kMn-22">
          <mxGeometry relative="1" as="geometry" />
        </mxCell>
      </root>
    </mxGraphModel>
  </diagram>
</mxfile>
